<svg id="svg8" height="512" viewBox="0 0 8.4666665 8.4666669" width="512" xmlns="http://www.w3.org/2000/svg" xmlns:xlink="http://www.w3.org/1999/xlink" xmlns:svg="http://www.w3.org/2000/svg"><linearGradient id="linearGradient3074" gradientUnits="userSpaceOnUse" x1=".529" x2="7.938" xlink:href="#linearGradient2578" y1="-52.388" y2="-44.979"/><linearGradient id="linearGradient2578"><stop id="stop2574" offset="0" stop-color="#ff0"/><stop id="stop2576" offset="1" stop-color="#f00"/></linearGradient><linearGradient id="linearGradient3058" gradientUnits="userSpaceOnUse" x1=".529" x2="7.938" xlink:href="#linearGradient2578" y1="-31.221" y2="-23.813"/><linearGradient id="linearGradient3046" gradientUnits="userSpaceOnUse" x1=".529" x2="7.937" xlink:href="#linearGradient2578" y1="-52.388" y2="-44.979"/><linearGradient id="linearGradient3026" gradientUnits="userSpaceOnUse" x1=".529" x2="7.951" xlink:href="#linearGradient2578" y1="-52.388" y2="-44.966"/><linearGradient id="linearGradient3008" gradientUnits="userSpaceOnUse" x1=".637" x2="7.913" xlink:href="#linearGradient2578" y1="-52.388" y2="-44.979"/><linearGradient id="linearGradient2998" gradientUnits="userSpaceOnUse" x1=".529" x2="7.937" xlink:href="#linearGradient2578" y1="-52.388" y2="-45.111"/><linearGradient id="linearGradient2936" gradientUnits="userSpaceOnUse" x1=".529" x2="7.938" xlink:href="#linearGradient2578" y1="-52.388" y2="-45.111"/><linearGradient id="linearGradient2928" gradientUnits="userSpaceOnUse" x1="-20.638" x2="-13.229" xlink:href="#linearGradient2578" y1="-41.804" y2="-34.396"/><linearGradient id="linearGradient2918" gradientUnits="userSpaceOnUse" x1="-10.054" x2="-2.633" xlink:href="#linearGradient2578" y1="-41.804" y2="-34.383"/><linearGradient id="linearGradient2880" gradientUnits="userSpaceOnUse" x1=".529" x2="7.805" xlink:href="#linearGradient2578" y1="-52.388" y2="-45.111"/><linearGradient id="linearGradient2830" gradientUnits="userSpaceOnUse" x1=".529" x2="7.938" xlink:href="#linearGradient2578" y1="-52.388" y2="-44.98"/><linearGradient id="linearGradient2802" gradientUnits="userSpaceOnUse" x1=".828" x2="7.639" xlink:href="#linearGradient2578" y1="-48.076" y2="-41.283"/><linearGradient id="linearGradient2766" gradientUnits="userSpaceOnUse" x1=".595" x2="8.017" xlink:href="#linearGradient2578" y1="-52.388" y2="-44.966"/><linearGradient id="linearGradient2758" gradientUnits="userSpaceOnUse" x1=".529" x2="7.938" xlink:href="#linearGradient2578" y1="-52.39" y2="-44.982"/><linearGradient id="linearGradient2748" gradientUnits="userSpaceOnUse" x1="-20.505" x2="-13.229" xlink:href="#linearGradient2578" y1="-41.804" y2="-34.396"/><linearGradient id="linearGradient2716" gradientUnits="userSpaceOnUse" x1=".529" x2="7.947" xlink:href="#linearGradient2578" y1="-52.388" y2="-44.982"/><linearGradient id="linearGradient2718" gradientUnits="userSpaceOnUse" x1=".528" x2="7.946" xlink:href="#linearGradient2578" y1="-52.388" y2="-44.982"/><linearGradient id="linearGradient2648" gradientUnits="userSpaceOnUse" x1=".397" x2="7.937" xlink:href="#linearGradient2578" y1="-52.388" y2="-44.98"/><linearGradient id="linearGradient2636" gradientUnits="userSpaceOnUse" x1=".532" x2="7.941" xlink:href="#linearGradient2578" y1="-52.393" y2="-44.985"/><linearGradient id="linearGradient2616" gradientUnits="userSpaceOnUse" x1=".529" x2="7.938" xlink:href="#linearGradient2578" y1="-52.389" y2="-44.98"/><g id="g1326" fill="url(#linearGradient2936)" transform="translate(0 52.916)"><path id="path1317" d="m4.2324219-52.386719c-2.0426208 0-3.70312485 1.660504-3.70312502 3.703125.00000017 2.042621 1.66050422 3.705078 3.70312502 3.705078s3.7050779-1.662457 3.7050781-3.705078c-.0000002-2.042621-1.6624573-3.703125-3.7050781-3.703125zm0 .529297c1.7566377 0 3.1757811 1.41719 3.1757812 3.173828-.0000001 1.756638-1.4191435 3.175781-3.1757812 3.175782-1.7566378-.000001-3.173828-1.419144-3.1738281-3.175782.0000001-1.756638 1.4171903-3.173828 3.1738281-3.173828z" font-variant-ligatures="normal" font-variant-position="normal" font-variant-caps="normal" font-variant-numeric="normal" font-variant-alternates="normal" font-variant-east-asian="normal" font-feature-settings="normal" font-variation-settings="normal" text-indent="0" text-align="start" text-decoration-line="none" text-decoration-style="solid" text-decoration-color="#000000" text-transform="none" text-orientation="mixed" white-space="normal" shape-padding="0" shape-margin="0" inline-size="0" isolation="auto" mix-blend-mode="normal" solid-color="#000000" solid-opacity="1" vector-effect="none"/><path id="path1319" d="m4.2323004-50.534903a.26458349.26458349 0 0 0 -.2635499.26355v1.32395h-1.3223999a.26458349.26458349 0 0 0 -.2656168.264067.26458349.26458349 0 0 0 .2656168.265617h1.3223999v1.321883a.26458349.26458349 0 0 0 .2635499.26355.26458349.26458349 0 0 0 .2656168-.26355v-1.321883h1.3223999a.26458349.26458349 0 0 0 .2656168-.265617.26458349.26458349 0 0 0 -.2656168-.264067h-1.3223999v-1.32395a.26458349.26458349 0 0 0 -.2656168-.26355z" font-variant-ligatures="normal" font-variant-position="normal" font-variant-caps="normal" font-variant-numeric="normal" font-variant-alternates="normal" font-variant-east-asian="normal" font-feature-settings="normal" font-variation-settings="normal" text-indent="0" text-align="start" text-decoration-line="none" text-decoration-style="solid" text-decoration-color="#000000" text-transform="none" text-orientation="mixed" white-space="normal" shape-padding="0" shape-margin="0" inline-size="0" isolation="auto" mix-blend-mode="normal" solid-color="#000000" solid-opacity="1" vector-effect="none"/></g></svg>