<svg id="svg8" height="512" viewBox="0 0 32 32" width="512" xmlns="http://www.w3.org/2000/svg" xmlns:xlink="http://www.w3.org/1999/xlink" xmlns:svg="http://www.w3.org/2000/svg"><linearGradient id="linearGradient1809" gradientUnits="userSpaceOnUse" x1="162" x2="189.95" xlink:href="#linearGradient1571" y1="162" y2="189.95"/><linearGradient id="linearGradient1571"><stop id="stop1567" offset="0" stop-color="#ff0"/><stop id="stop1569" offset="1" stop-color="#008000"/></linearGradient><linearGradient id="linearGradient1801" gradientUnits="userSpaceOnUse" x1="122" x2="150" xlink:href="#linearGradient1571" y1="162" y2="190"/><linearGradient id="linearGradient1793" gradientUnits="userSpaceOnUse" x1="82" x2="109.95" xlink:href="#linearGradient1571" y1="162" y2="189.95"/><linearGradient id="linearGradient1783" gradientUnits="userSpaceOnUse" x1="2.05" x2="30" xlink:href="#linearGradient1571" y1="2.05" y2="30"/><linearGradient id="linearGradient1785" gradientUnits="userSpaceOnUse" x1="42.05" x2="70" xlink:href="#linearGradient1571" y1="162.05" y2="190"/><linearGradient id="linearGradient1767" gradientUnits="userSpaceOnUse" x1="162" x2="190" xlink:href="#linearGradient1571" y1="122" y2="150"/><linearGradient id="linearGradient1743" gradientUnits="userSpaceOnUse" x1="2" x2="30" xlink:href="#linearGradient1571" y1="2" y2="30"/><linearGradient id="linearGradient1735" gradientUnits="userSpaceOnUse" x1="42.05" x2="69.95" xlink:href="#linearGradient1571" y1="122.05" y2="149.95"/><linearGradient id="linearGradient1725" gradientUnits="userSpaceOnUse" x1="2" x2="29.95" xlink:href="#linearGradient1571" y1="2" y2="29.95"/><linearGradient id="linearGradient1715" gradientUnits="userSpaceOnUse" x1="2.05" x2="30" xlink:href="#linearGradient1571" y1="2.124" y2="30.074"/><linearGradient id="linearGradient1701" gradientUnits="userSpaceOnUse" x1="122.05" x2="150" xlink:href="#linearGradient1571" y1="82.05" y2="110"/><linearGradient id="linearGradient1691" gradientUnits="userSpaceOnUse" x1="82.05" x2="109.95" xlink:href="#linearGradient1571" y1="82.05" y2="109.95"/><linearGradient id="linearGradient1673" gradientUnits="userSpaceOnUse" x1="1" x2="30" xlink:href="#linearGradient1571" y1="2" y2="30"/><linearGradient id="linearGradient1663" gradientUnits="userSpaceOnUse" x1="30" x2="2.05" xlink:href="#linearGradient1571" y1="2" y2="29.95"/><linearGradient id="linearGradient1665" gradientUnits="userSpaceOnUse" x1="162" x2="189.95" xlink:href="#linearGradient1571" y1="42" y2="69.95"/><linearGradient id="linearGradient1655" gradientUnits="userSpaceOnUse" x1="122" x2="150" xlink:href="#linearGradient1571" y1="42" y2="70"/><linearGradient id="linearGradient1645" gradientUnits="userSpaceOnUse" x1="82.05" x2="110" xlink:href="#linearGradient1571" y1="42.05" y2="70"/><linearGradient id="linearGradient1635" gradientUnits="userSpaceOnUse" x1="42" x2="70" xlink:href="#linearGradient1571" y1="42" y2="70"/><linearGradient id="linearGradient1601" gradientUnits="userSpaceOnUse" x1="122.05" x2="150" xlink:href="#linearGradient1571" y1="2.05" y2="30"/><linearGradient id="linearGradient1589" gradientUnits="userSpaceOnUse" x1="2.05" x2="29.95" xlink:href="#linearGradient1571" y1="2.05" y2="29.95"/><linearGradient id="linearGradient1581" gradientUnits="userSpaceOnUse" x1="42.05" x2="70" xlink:href="#linearGradient1571" y1="2.05" y2="30"/><g id="g2254"><path id="path2234" d="m16 2c-7.7201418 0-14 6.2798582-14 14 0 7.720142 6.2798582 14 14 14 3.40729 0 6.540485-1.221869 8.96875-3.25a1 1 0 0 0 .126953-1.408203 1 1 0 0 0 -1.408203-.126953c-2.083057 1.739807-4.757258 2.785156-7.6875 2.785156-6.6392616 0-12-5.360738-12-12 0-6.6392616 5.3607384-12 12-12 6.639262 0 12 5.3607384 12 12 0 1.982416-.478024 3.845167-1.326172 5.490234a1 1 0 0 0 .429688 1.347657 1 1 0 0 0 1.347656-.429688c.99-1.920203 1.548828-4.103047 1.548828-6.408203 0-7.7201418-6.279858-14-14-14z" fill="url(#linearGradient1783)" font-variant-ligatures="normal" font-variant-position="normal" font-variant-caps="normal" font-variant-numeric="normal" font-variant-alternates="normal" font-variant-east-asian="normal" font-feature-settings="normal" font-variation-settings="normal" text-indent="0" text-align="start" text-decoration-line="none" text-decoration-style="solid" text-decoration-color="#000000" text-transform="none" text-orientation="mixed" white-space="normal" shape-padding="0" shape-margin="0" inline-size="0" isolation="auto" mix-blend-mode="normal" solid-color="#000000" solid-opacity="1" vector-effect="none"/><path id="path2236" d="m129.29297 9.2929688c-.39042.390507-.39042 1.0235552 0 1.4140622l5.29297 5.292969-5.29297 5.292969c-.39042.390507-.39042 1.023555 0 1.414062.39051.390422 1.02355.390422 1.41406 0l5.29297-5.292969 5.29297 5.292969c.39051.390422 1.02355.390422 1.41406 0 .39042-.390507.39042-1.023555 0-1.414062l-5.29297-5.292969 5.29297-5.292969c.39042-.390507.39042-1.0235552 0-1.4140622-.41762-.4229412-.99696-.4170952-1.41406 0l-5.29297 5.2929692-5.29297-5.2929692c-.40232-.4023167-1.0178-.4171108-1.41406 0z" fill="url(#linearGradient1601)" transform="translate(-120)" font-variant-ligatures="normal" font-variant-position="normal" font-variant-caps="normal" font-variant-numeric="normal" font-variant-alternates="normal" font-variant-east-asian="normal" font-feature-settings="normal" font-variation-settings="normal" text-indent="0" text-align="start" text-decoration-line="none" text-decoration-style="solid" text-decoration-color="#000000" text-transform="none" text-orientation="mixed" white-space="normal" shape-padding="0" shape-margin="0" inline-size="0" isolation="auto" mix-blend-mode="normal" solid-color="#000000" solid-opacity="1" vector-effect="none"/></g></svg>