<svg id="svg8" height="512" viewBox="0 0 32 32" width="512" xmlns="http://www.w3.org/2000/svg" xmlns:xlink="http://www.w3.org/1999/xlink" xmlns:svg="http://www.w3.org/2000/svg"><linearGradient id="linearGradient1809" gradientUnits="userSpaceOnUse" x1="162" x2="189.95" xlink:href="#linearGradient1571" y1="162" y2="189.95"/><linearGradient id="linearGradient1571"><stop id="stop1567" offset="0" stop-color="#ff0"/><stop id="stop1569" offset="1" stop-color="#008000"/></linearGradient><linearGradient id="linearGradient1801" gradientUnits="userSpaceOnUse" x1="122" x2="150" xlink:href="#linearGradient1571" y1="162" y2="190"/><linearGradient id="linearGradient1793" gradientUnits="userSpaceOnUse" x1="82" x2="109.95" xlink:href="#linearGradient1571" y1="162" y2="189.95"/><linearGradient id="linearGradient1783" gradientUnits="userSpaceOnUse" x1="2.05" x2="30" xlink:href="#linearGradient1571" y1="2.05" y2="30"/><linearGradient id="linearGradient1785" gradientUnits="userSpaceOnUse" x1="42.05" x2="70" xlink:href="#linearGradient1571" y1="162.05" y2="190"/><linearGradient id="linearGradient1767" gradientUnits="userSpaceOnUse" x1="162" x2="190" xlink:href="#linearGradient1571" y1="122" y2="150"/><linearGradient id="linearGradient1743" gradientUnits="userSpaceOnUse" x1="2" x2="30" xlink:href="#linearGradient1571" y1="2" y2="30"/><linearGradient id="linearGradient1735" gradientUnits="userSpaceOnUse" x1="42.05" x2="69.95" xlink:href="#linearGradient1571" y1="122.05" y2="149.95"/><linearGradient id="linearGradient1725" gradientUnits="userSpaceOnUse" x1="2" x2="29.95" xlink:href="#linearGradient1571" y1="2" y2="29.95"/><linearGradient id="linearGradient1715" gradientUnits="userSpaceOnUse" x1="2.05" x2="30" xlink:href="#linearGradient1571" y1="2.124" y2="30.074"/><linearGradient id="linearGradient1701" gradientUnits="userSpaceOnUse" x1="122.05" x2="150" xlink:href="#linearGradient1571" y1="82.05" y2="110"/><linearGradient id="linearGradient1691" gradientUnits="userSpaceOnUse" x1="82.05" x2="109.95" xlink:href="#linearGradient1571" y1="82.05" y2="109.95"/><linearGradient id="linearGradient1673" gradientUnits="userSpaceOnUse" x1="1" x2="30" xlink:href="#linearGradient1571" y1="2" y2="30"/><linearGradient id="linearGradient1663" gradientUnits="userSpaceOnUse" x1="30" x2="2.05" xlink:href="#linearGradient1571" y1="2" y2="29.95"/><linearGradient id="linearGradient1665" gradientUnits="userSpaceOnUse" x1="162" x2="189.95" xlink:href="#linearGradient1571" y1="42" y2="69.95"/><linearGradient id="linearGradient1655" gradientUnits="userSpaceOnUse" x1="122" x2="150" xlink:href="#linearGradient1571" y1="42" y2="70"/><linearGradient id="linearGradient1645" gradientUnits="userSpaceOnUse" x1="82.05" x2="110" xlink:href="#linearGradient1571" y1="42.05" y2="70"/><linearGradient id="linearGradient1635" gradientUnits="userSpaceOnUse" x1="42" x2="70" xlink:href="#linearGradient1571" y1="42" y2="70"/><linearGradient id="linearGradient1601" gradientUnits="userSpaceOnUse" x1="122.05" x2="150" xlink:href="#linearGradient1571" y1="2.05" y2="30"/><linearGradient id="linearGradient1589" gradientUnits="userSpaceOnUse" x1="2.05" x2="29.95" xlink:href="#linearGradient1571" y1="2.05" y2="29.95"/><linearGradient id="linearGradient1581" gradientUnits="userSpaceOnUse" x1="42.05" x2="70" xlink:href="#linearGradient1571" y1="2.05" y2="30"/><g id="g2410"><path id="path2403" d="m9.9375 2.2890625c-1.8240567.0053661-3.5912653.6355364-5.0058594 1.7871094-3.402814 2.7700178-3.9201257 7.8059471-1.1503906 11.2089841l11.443359 14.056641a1.0001 1.0001 0 0 0 1.550782 0l4.55664-5.597656a1 1 0 0 0 -.144531-1.408203 1 1 0 0 0 -1.40625.144531l-3.78125 4.646484-10.6660156-13.105469c-2.0874721-2.564774-1.705235-6.3048893.859375-8.3925778 1.0597199-.862682 2.3835337-1.3358238 3.75-1.3398437 1.8015426-.00505 3.5073126.801984 4.6445316 2.1992187l.636718.7832032a1.0001 1.0001 0 0 0 1.550782 0l.636718-.7832032c2.087706-2.5645846 5.829733-2.9468299 8.394532-.859375 2.56461 2.0876887 2.946847 5.8278038.859375 8.3925778l-4.240235 5.210938a1 1 0 0 0 .144531 1.40625 1 1 0 0 0 1.40625-.144531l4.242188-5.208985c2.769735-3.403037 2.252423-8.4389661-1.150391-11.2089841-3.355981-2.7313872-8.279497-2.237798-11.072265 1.0390625-1.516141-1.7768488-3.716682-2.8327355-6.058594-2.8261719z" fill="url(#linearGradient1783)" font-variant-ligatures="normal" font-variant-position="normal" font-variant-caps="normal" font-variant-numeric="normal" font-variant-alternates="normal" font-variant-east-asian="normal" font-feature-settings="normal" font-variation-settings="normal" text-indent="0" text-align="start" text-decoration-line="none" text-decoration-style="solid" text-decoration-color="#000000" text-transform="none" text-orientation="mixed" white-space="normal" shape-padding="0" shape-margin="0" inline-size="0" isolation="auto" mix-blend-mode="normal" solid-color="#000000" solid-opacity="1" vector-effect="none"/></g></svg>