<svg id="svg8" height="512" viewBox="0 0 32 32" width="512" xmlns="http://www.w3.org/2000/svg" xmlns:xlink="http://www.w3.org/1999/xlink" xmlns:svg="http://www.w3.org/2000/svg"><linearGradient id="linearGradient1809" gradientUnits="userSpaceOnUse" x1="162" x2="189.95" xlink:href="#linearGradient1571" y1="162" y2="189.95"/><linearGradient id="linearGradient1571"><stop id="stop1567" offset="0" stop-color="#ff0"/><stop id="stop1569" offset="1" stop-color="#008000"/></linearGradient><linearGradient id="linearGradient1801" gradientUnits="userSpaceOnUse" x1="122" x2="150" xlink:href="#linearGradient1571" y1="162" y2="190"/><linearGradient id="linearGradient1793" gradientUnits="userSpaceOnUse" x1="82" x2="109.95" xlink:href="#linearGradient1571" y1="162" y2="189.95"/><linearGradient id="linearGradient1783" gradientUnits="userSpaceOnUse" x1="2.05" x2="30" xlink:href="#linearGradient1571" y1="2.05" y2="30"/><linearGradient id="linearGradient1785" gradientUnits="userSpaceOnUse" x1="42.05" x2="70" xlink:href="#linearGradient1571" y1="162.05" y2="190"/><linearGradient id="linearGradient1767" gradientUnits="userSpaceOnUse" x1="162" x2="190" xlink:href="#linearGradient1571" y1="122" y2="150"/><linearGradient id="linearGradient1743" gradientUnits="userSpaceOnUse" x1="2" x2="30" xlink:href="#linearGradient1571" y1="2" y2="30"/><linearGradient id="linearGradient1735" gradientUnits="userSpaceOnUse" x1="42.05" x2="69.95" xlink:href="#linearGradient1571" y1="122.05" y2="149.95"/><linearGradient id="linearGradient1725" gradientUnits="userSpaceOnUse" x1="2" x2="29.95" xlink:href="#linearGradient1571" y1="2" y2="29.95"/><linearGradient id="linearGradient1715" gradientUnits="userSpaceOnUse" x1="2.05" x2="30" xlink:href="#linearGradient1571" y1="2.124" y2="30.074"/><linearGradient id="linearGradient1701" gradientUnits="userSpaceOnUse" x1="122.05" x2="150" xlink:href="#linearGradient1571" y1="82.05" y2="110"/><linearGradient id="linearGradient1691" gradientUnits="userSpaceOnUse" x1="82.05" x2="109.95" xlink:href="#linearGradient1571" y1="82.05" y2="109.95"/><linearGradient id="linearGradient1673" gradientUnits="userSpaceOnUse" x1="1" x2="30" xlink:href="#linearGradient1571" y1="2" y2="30"/><linearGradient id="linearGradient1663" gradientUnits="userSpaceOnUse" x1="30" x2="2.05" xlink:href="#linearGradient1571" y1="2" y2="29.95"/><linearGradient id="linearGradient1665" gradientUnits="userSpaceOnUse" x1="162" x2="189.95" xlink:href="#linearGradient1571" y1="42" y2="69.95"/><linearGradient id="linearGradient1655" gradientUnits="userSpaceOnUse" x1="122" x2="150" xlink:href="#linearGradient1571" y1="42" y2="70"/><linearGradient id="linearGradient1645" gradientUnits="userSpaceOnUse" x1="82.05" x2="110" xlink:href="#linearGradient1571" y1="42.05" y2="70"/><linearGradient id="linearGradient1635" gradientUnits="userSpaceOnUse" x1="42" x2="70" xlink:href="#linearGradient1571" y1="42" y2="70"/><linearGradient id="linearGradient1601" gradientUnits="userSpaceOnUse" x1="122.05" x2="150" xlink:href="#linearGradient1571" y1="2.05" y2="30"/><linearGradient id="linearGradient1589" gradientUnits="userSpaceOnUse" x1="2.05" x2="29.95" xlink:href="#linearGradient1571" y1="2.05" y2="29.95"/><linearGradient id="linearGradient1581" gradientUnits="userSpaceOnUse" x1="42.05" x2="70" xlink:href="#linearGradient1571" y1="2.05" y2="30"/><g id="g2484"><path id="rect2471" d="m7 2c-2.7527028 0-5 2.2472972-5 5v18c0 2.752703 2.2472972 5 5 5h18c2.752703 0 5-2.247297 5-5v-3a1 1 0 0 0 -1-1 1 1 0 0 0 -1 1v3c0 1.679297-1.320703 3-3 3h-18c-1.6792972 0-3-1.320703-3-3v-18c0-1.6792972 1.3207028-3 3-3h18c1.679297 0 3 1.3207028 3 3v11a1 1 0 0 0 1 1 1 1 0 0 0 1-1v-11c0-2.7527028-2.247297-5-5-5z" fill="url(#linearGradient1783)" font-variant-ligatures="normal" font-variant-position="normal" font-variant-caps="normal" font-variant-numeric="normal" font-variant-alternates="normal" font-variant-east-asian="normal" font-feature-settings="normal" font-variation-settings="normal" text-indent="0" text-align="start" text-decoration-line="none" text-decoration-style="solid" text-decoration-color="#000000" text-transform="none" text-orientation="mixed" white-space="normal" shape-padding="0" shape-margin="0" inline-size="0" isolation="auto" mix-blend-mode="normal" solid-color="#000000" solid-opacity="1" vector-effect="none"/><path id="path2473" d="m9 8a1 1 0 0 0 -1 1 1 1 0 0 0 1 1h14a1 1 0 0 0 1-1 1 1 0 0 0 -1-1z" fill="url(#linearGradient1783)" font-variant-ligatures="normal" font-variant-position="normal" font-variant-caps="normal" font-variant-numeric="normal" font-variant-alternates="normal" font-variant-east-asian="normal" font-feature-settings="normal" font-variation-settings="normal" text-indent="0" text-align="start" text-decoration-line="none" text-decoration-style="solid" text-decoration-color="#000000" text-transform="none" text-orientation="mixed" white-space="normal" shape-padding="0" shape-margin="0" inline-size="0" isolation="auto" mix-blend-mode="normal" solid-color="#000000" solid-opacity="1" vector-effect="none"/><path id="path2475" d="m9 15a1 1 0 0 0 -1 1 1 1 0 0 0 1 1h14a1 1 0 0 0 1-1 1 1 0 0 0 -1-1z" fill="url(#linearGradient1715)" font-variant-ligatures="normal" font-variant-position="normal" font-variant-caps="normal" font-variant-numeric="normal" font-variant-alternates="normal" font-variant-east-asian="normal" font-feature-settings="normal" font-variation-settings="normal" text-indent="0" text-align="start" text-decoration-line="none" text-decoration-style="solid" text-decoration-color="#000000" text-transform="none" text-orientation="mixed" white-space="normal" shape-padding="0" shape-margin="0" inline-size="0" isolation="auto" mix-blend-mode="normal" solid-color="#000000" solid-opacity="1" vector-effect="none"/><path id="path2477" d="m9 22a1 1 0 0 0 -1 1 1 1 0 0 0 1 1h14a1 1 0 0 0 1-1 1 1 0 0 0 -1-1z" fill="url(#linearGradient1783)" font-variant-ligatures="normal" font-variant-position="normal" font-variant-caps="normal" font-variant-numeric="normal" font-variant-alternates="normal" font-variant-east-asian="normal" font-feature-settings="normal" font-variation-settings="normal" text-indent="0" text-align="start" text-decoration-line="none" text-decoration-style="solid" text-decoration-color="#000000" text-transform="none" text-orientation="mixed" white-space="normal" shape-padding="0" shape-margin="0" inline-size="0" isolation="auto" mix-blend-mode="normal" solid-color="#000000" solid-opacity="1" vector-effect="none"/></g></svg>