<svg id="Layer_1" height="512" viewBox="0 0 512 512" width="512" xmlns="http://www.w3.org/2000/svg" data-name="Layer 1"><path d="m480 467.2a11.447 11.447 0 0 1 -11.43 11.431h-32v-214.4a15.994 15.994 0 0 0 -16-16h-329.14a16 16 0 0 0 -16 16v214.4h-32a11.446 11.446 0 0 1 -11.43-11.431v-422.4a11.444 11.444 0 0 1 11.43-11.428h62.172v138.965a16 16 0 0 0 16 16h268.798a15.994 15.994 0 0 0 16-16v-121.828l73.6 73.6zm-75.429 11.43v-198.4h-297.142v198.4zm-266.971-445.262v122.972h236.8v-122.972zm369.708 72.8-100.108-100.11a16.013 16.013 0 0 0 -11.311-4.687h-352.46a43.478 43.478 0 0 0 -43.429 43.429v422.4a43.476 43.476 0 0 0 43.429 43.431h425.14a43.473 43.473 0 0 0 43.431-43.431v-349.714a16.01 16.01 0 0 0 -4.692-11.316z" fill="#5eac24" fill-rule="evenodd"/></svg>