<svg id="svg8" height="512" viewBox="0 0 64 64" width="512" xmlns="http://www.w3.org/2000/svg" xmlns:xlink="http://www.w3.org/1999/xlink" xmlns:svg="http://www.w3.org/2000/svg"><linearGradient id="linearGradient2223" gradientUnits="userSpaceOnUse" x1="4" x2="60" xlink:href="#linearGradient2247" y1="4" y2="60"/><linearGradient id="linearGradient2247"><stop id="stop2243" offset="0" stop-color="#ff0"/><stop id="stop2245" offset="1" stop-color="#008000"/></linearGradient><linearGradient id="linearGradient2255" gradientUnits="userSpaceOnUse" x1="84" x2="140" xlink:href="#linearGradient2247" y1="4" y2="60"/><linearGradient id="linearGradient2271" gradientUnits="userSpaceOnUse" x1="164" x2="220" xlink:href="#linearGradient2247" y1="4" y2="60"/><linearGradient id="linearGradient2281" gradientUnits="userSpaceOnUse" x1="244" x2="300" xlink:href="#linearGradient2247" y1="4" y2="60"/><linearGradient id="linearGradient2295" gradientUnits="userSpaceOnUse" x1="324" x2="380" xlink:href="#linearGradient2247" y1="4" y2="60"/><linearGradient id="linearGradient2311" gradientUnits="userSpaceOnUse" x1="4" x2="60" xlink:href="#linearGradient2247" y1="84" y2="140"/><linearGradient id="linearGradient2323" gradientUnits="userSpaceOnUse" x1="84" x2="140" xlink:href="#linearGradient2247" y1="84" y2="140"/><linearGradient id="linearGradient2333" gradientUnits="userSpaceOnUse" x1="164" x2="220" xlink:href="#linearGradient2247" y1="84" y2="140"/><linearGradient id="linearGradient2343" gradientUnits="userSpaceOnUse" x1="244" x2="300" xlink:href="#linearGradient2247" y1="84" y2="140"/><linearGradient id="linearGradient2643" gradientUnits="userSpaceOnUse" x1="324" x2="380" xlink:href="#linearGradient2247" y1="404" y2="460"/><linearGradient id="linearGradient2633" gradientUnits="userSpaceOnUse" x1="244" x2="300" xlink:href="#linearGradient2247" y1="404" y2="460"/><linearGradient id="linearGradient2625" gradientUnits="userSpaceOnUse" x1="164" x2="220" xlink:href="#linearGradient2247" y1="404" y2="460"/><linearGradient id="linearGradient2615" gradientUnits="userSpaceOnUse" x1="84" x2="140" xlink:href="#linearGradient2247" y1="404" y2="460"/><linearGradient id="linearGradient2595" gradientUnits="userSpaceOnUse" x1="4" x2="60" xlink:href="#linearGradient2247" y1="404" y2="460"/><linearGradient id="linearGradient2571" gradientUnits="userSpaceOnUse" x1="324" x2="380" xlink:href="#linearGradient2247" y1="324" y2="380"/><linearGradient id="linearGradient2559" gradientUnits="userSpaceOnUse" x1="244" x2="300" xlink:href="#linearGradient2247" y1="326" y2="380"/><linearGradient id="linearGradient2563" gradientUnits="userSpaceOnUse" x1="4" x2="60" xlink:href="#linearGradient2247" y1="6" y2="60"/><linearGradient id="linearGradient2547" gradientUnits="userSpaceOnUse" x1="164" x2="220" xlink:href="#linearGradient2247" y1="324" y2="380"/><linearGradient id="linearGradient2551" gradientUnits="userSpaceOnUse" x1="164" x2="220" xlink:href="#linearGradient2247" y1="244" y2="300"/><linearGradient id="linearGradient2537" gradientUnits="userSpaceOnUse" x1="84" x2="140" xlink:href="#linearGradient2247" y1="324" y2="380"/><linearGradient id="linearGradient2523" gradientUnits="userSpaceOnUse" x1="4" x2="60" xlink:href="#linearGradient2247" y1="324" y2="380"/><linearGradient id="linearGradient2509" gradientUnits="userSpaceOnUse" x1="324" x2="380" xlink:href="#linearGradient2247" y1="244" y2="300"/><linearGradient id="linearGradient2511" gradientUnits="userSpaceOnUse" x1="10" x2="66" xlink:href="#linearGradient2247" y1="4" y2="60"/><linearGradient id="linearGradient2495" gradientUnits="userSpaceOnUse" x1="244" x2="300" xlink:href="#linearGradient2247" y1="244" y2="300"/><linearGradient id="linearGradient2467" gradientUnits="userSpaceOnUse" x1="84" x2="140" xlink:href="#linearGradient2247" y1="244" y2="300"/><linearGradient id="linearGradient2453" gradientUnits="userSpaceOnUse" x1="4" x2="60" xlink:href="#linearGradient2247" y1="244" y2="300"/><linearGradient id="linearGradient2383" gradientUnits="userSpaceOnUse" x1="4" x2="60" xlink:href="#linearGradient2247" y1="164" y2="220"/><linearGradient id="linearGradient2397" gradientUnits="userSpaceOnUse" x1="84" x2="140" xlink:href="#linearGradient2247" y1="164" y2="220"/><linearGradient id="linearGradient2411" gradientUnits="userSpaceOnUse" x1="164" x2="220" xlink:href="#linearGradient2247" y1="164" y2="220"/><linearGradient id="linearGradient2439" gradientUnits="userSpaceOnUse" x1="324" x2="380" xlink:href="#linearGradient2247" y1="164" y2="220"/><linearGradient id="linearGradient2425" gradientUnits="userSpaceOnUse" x1="244" x2="300" xlink:href="#linearGradient2247" y1="164" y2="220"/><g id="g2402" fill="url(#linearGradient2323)"><path id="path2364" d="m95 84c-2.752703 0-5 2.247297-5 5v46c0 2.7527 2.247297 5 5 5h34c2.7527 0 5-2.2473 5-5v-35c0-.910703-.3705-1.769754-.99219-2.40625l-12.29297-12.585938c-.64317-.658493-1.52227-1.007812-2.42187-1.007812zm0 2h23v10c0 2.198703 1.8013 4 4 4h10v35c0 1.6793-1.3207 3-3 3h-34c-1.679297 0-3-1.3207-3-3v-46c0-1.679297 1.320703-3 3-3zm25 1.138672 10.60938 10.861328h-8.60938c-1.1253 0-2-.874703-2-2z" transform="translate(-80 -80)" font-variant-ligatures="normal" font-variant-position="normal" font-variant-caps="normal" font-variant-numeric="normal" font-variant-alternates="normal" font-variant-east-asian="normal" font-feature-settings="normal" font-variation-settings="normal" text-indent="0" text-align="start" text-decoration-line="none" text-decoration-style="solid" text-decoration-color="#000000" text-transform="none" text-orientation="mixed" white-space="normal" shape-padding="0" shape-margin="0" inline-size="0" isolation="auto" mix-blend-mode="normal" solid-color="#000000" solid-opacity="1" vector-effect="none"/><path id="rect2387" d="m112 103c-3.8607 0-7 3.1393-7 7v4h-2c-1.6447 0-3 1.3553-3 3v12c0 1.6447 1.3553 3 3 3h18c1.6447 0 3-1.3553 3-3v-12c0-1.6447-1.3553-3-3-3h-2v-4c0-3.8607-3.1393-7-7-7zm0 2c2.7873 0 5 2.2127 5 5v4h-10v-4c0-2.7873 2.2127-5 5-5zm-9 11h18c.5713 0 1 .4287 1 1v12c0 .5713-.4287 1-1 1h-18c-.5713 0-1-.4287-1-1v-12c0-.5713.4287-1 1-1z" transform="translate(-80 -80)" font-variant-ligatures="normal" font-variant-position="normal" font-variant-caps="normal" font-variant-numeric="normal" font-variant-alternates="normal" font-variant-east-asian="normal" font-feature-settings="normal" font-variation-settings="normal" text-indent="0" text-align="start" text-decoration-line="none" text-decoration-style="solid" text-decoration-color="#000000" text-transform="none" text-orientation="mixed" white-space="normal" shape-padding="0" shape-margin="0" inline-size="0" isolation="auto" mix-blend-mode="normal" solid-color="#000000" solid-opacity="1" vector-effect="none"/></g></svg>